<svg width="397" height="115" viewBox="0 0 397 115" fill="none" xmlns="http://www.w3.org/2000/svg">
<path d="M170.824 61.8879V39.4879H178.376V56.0319H188.488V61.8879H170.824ZM188.454 61.8879L198.247 39.4879H205.671L215.463 61.8879H207.655L200.423 43.0719H203.367L196.135 61.8879H188.454ZM194.279 57.9839L196.199 52.5439H206.503L208.423 57.9839H194.279ZM215.315 55.3599V49.9199H224.915V55.3599H215.315ZM228.168 61.8879V39.4879H238.952C241.042 39.4879 242.845 39.8293 244.36 40.5119C245.896 41.1946 247.08 42.1759 247.912 43.4559C248.744 44.7146 249.16 46.2079 249.16 47.9359C249.16 49.6639 248.744 51.1573 247.912 52.4159C247.08 53.6746 245.896 54.6559 244.36 55.3599C242.845 56.0426 241.042 56.3839 238.952 56.3839H232.36L235.72 53.1519V61.8879H228.168ZM235.72 53.9839L232.36 50.5599H238.472C239.517 50.5599 240.285 50.3253 240.776 49.8559C241.288 49.3866 241.544 48.7466 241.544 47.9359C241.544 47.1253 241.288 46.4853 240.776 46.0159C240.285 45.5466 239.517 45.3119 238.472 45.3119H232.36L235.72 41.8879V53.9839ZM251.637 61.8879V39.4879H262.421C264.511 39.4879 266.314 39.8293 267.829 40.5119C269.365 41.1946 270.549 42.1759 271.381 43.4559C272.213 44.7146 272.629 46.2079 272.629 47.9359C272.629 49.6639 272.213 51.1573 271.381 52.4159C270.549 53.6533 269.365 54.6026 267.829 55.2639C266.314 55.9253 264.511 56.2559 262.421 56.2559H255.829L259.189 53.1519V61.8879H251.637ZM265.045 61.8879L259.541 53.7279H267.541L273.109 61.8879H265.045ZM259.189 53.9839L255.829 50.5599H261.941C262.986 50.5599 263.754 50.3253 264.245 49.8559C264.757 49.3866 265.013 48.7466 265.013 47.9359C265.013 47.1253 264.757 46.4853 264.245 46.0159C263.754 45.5466 262.986 45.3119 261.941 45.3119H255.829L259.189 41.8879V53.9839ZM287.256 62.3999C285.422 62.3999 283.726 62.1119 282.168 61.5359C280.632 60.9599 279.299 60.1493 278.168 59.1039C277.038 58.0373 276.152 56.7893 275.512 55.3599C274.894 53.9306 274.584 52.3733 274.584 50.6879C274.584 48.9813 274.894 47.4239 275.512 46.0159C276.152 44.5866 277.038 43.3493 278.168 42.3039C279.299 41.2373 280.632 40.4159 282.168 39.8399C283.726 39.2639 285.411 38.9759 287.224 38.9759C289.059 38.9759 290.744 39.2639 292.28 39.8399C293.816 40.4159 295.15 41.2373 296.28 42.3039C297.411 43.3493 298.286 44.5866 298.904 46.0159C299.544 47.4239 299.864 48.9813 299.864 50.6879C299.864 52.3733 299.544 53.9306 298.904 55.3599C298.286 56.7893 297.411 58.0373 296.28 59.1039C295.15 60.1493 293.816 60.9599 292.28 61.5359C290.744 62.1119 289.07 62.3999 287.256 62.3999ZM287.224 56.2879C287.928 56.2879 288.579 56.1599 289.176 55.9039C289.795 55.6479 290.328 55.2853 290.776 54.8159C291.246 54.3253 291.608 53.7386 291.864 53.0559C292.12 52.3519 292.248 51.5626 292.248 50.6879C292.248 49.8133 292.12 49.0346 291.864 48.3519C291.608 47.6479 291.246 47.0613 290.776 46.5919C290.328 46.1013 289.795 45.7279 289.176 45.4719C288.579 45.2159 287.928 45.0879 287.224 45.0879C286.52 45.0879 285.859 45.2159 285.24 45.4719C284.643 45.7279 284.11 46.1013 283.64 46.5919C283.192 47.0613 282.84 47.6479 282.584 48.3519C282.328 49.0346 282.2 49.8133 282.2 50.6879C282.2 51.5626 282.328 52.3519 282.584 53.0559C282.84 53.7386 283.192 54.3253 283.64 54.8159C284.11 55.2853 284.643 55.6479 285.24 55.9039C285.859 56.1599 286.52 56.2879 287.224 56.2879Z" fill="#9FEF00"/>
<path d="M170.155 81V73.3H173.158C173.833 73.3 174.408 73.4063 174.885 73.619C175.362 73.8317 175.728 74.1397 175.985 74.543C176.242 74.9463 176.37 75.4267 176.37 75.984C176.37 76.5413 176.242 77.0217 175.985 77.425C175.728 77.821 175.362 78.129 174.885 78.349C174.408 78.5617 173.833 78.668 173.158 78.668H170.76L171.255 78.151V81H170.155ZM171.255 78.261L170.76 77.711H173.125C173.829 77.711 174.361 77.5607 174.72 77.26C175.087 76.9593 175.27 76.534 175.27 75.984C175.27 75.434 175.087 75.0087 174.72 74.708C174.361 74.4073 173.829 74.257 173.125 74.257H170.76L171.255 73.707V78.261ZM181.507 81.066C180.883 81.066 180.333 80.9377 179.857 80.681C179.387 80.4243 179.021 80.0723 178.757 79.625C178.5 79.1777 178.372 78.6643 178.372 78.085C178.372 77.5057 178.496 76.9923 178.746 76.545C179.002 76.0977 179.351 75.7493 179.791 75.5C180.238 75.2433 180.74 75.115 181.298 75.115C181.862 75.115 182.361 75.2397 182.794 75.489C183.226 75.7383 183.564 76.0903 183.806 76.545C184.055 76.9923 184.18 77.5167 184.18 78.118C184.18 78.162 184.176 78.2133 184.169 78.272C184.169 78.3307 184.165 78.3857 184.158 78.437H179.197V77.678H183.608L183.179 77.942C183.186 77.568 183.109 77.2343 182.948 76.941C182.786 76.6477 182.563 76.4203 182.277 76.259C181.998 76.0903 181.672 76.006 181.298 76.006C180.931 76.006 180.605 76.0903 180.319 76.259C180.033 76.4203 179.809 76.6513 179.648 76.952C179.486 77.2453 179.406 77.5827 179.406 77.964V78.14C179.406 78.5287 179.494 78.877 179.67 79.185C179.853 79.4857 180.106 79.7203 180.429 79.889C180.751 80.0577 181.122 80.142 181.54 80.142C181.884 80.142 182.196 80.0833 182.475 79.966C182.761 79.8487 183.01 79.6727 183.223 79.438L183.806 80.12C183.542 80.428 183.212 80.6627 182.816 80.824C182.427 80.9853 181.991 81.066 181.507 81.066ZM188.748 81.066C188.161 81.066 187.707 80.9083 187.384 80.593C187.061 80.2777 186.9 79.8267 186.9 79.24V73.894H187.956V79.196C187.956 79.5113 188.033 79.7533 188.187 79.922C188.348 80.0907 188.576 80.175 188.869 80.175C189.199 80.175 189.474 80.0833 189.694 79.9L190.024 80.659C189.863 80.7983 189.668 80.901 189.441 80.967C189.221 81.033 188.99 81.066 188.748 81.066ZM185.91 76.039V75.17H189.628V76.039H185.91ZM196.02 81V79.768L195.965 79.537V77.436C195.965 76.9887 195.833 76.644 195.569 76.402C195.312 76.1527 194.923 76.028 194.403 76.028C194.058 76.028 193.721 76.0867 193.391 76.204C193.061 76.314 192.782 76.4643 192.555 76.655L192.115 75.863C192.415 75.621 192.775 75.4377 193.193 75.313C193.618 75.181 194.062 75.115 194.524 75.115C195.323 75.115 195.939 75.3093 196.372 75.698C196.804 76.0867 197.021 76.6807 197.021 77.48V81H196.02ZM194.106 81.066C193.673 81.066 193.292 80.9927 192.962 80.846C192.639 80.6993 192.39 80.4977 192.214 80.241C192.038 79.977 191.95 79.68 191.95 79.35C191.95 79.0347 192.023 78.7487 192.17 78.492C192.324 78.2353 192.569 78.03 192.907 77.876C193.251 77.722 193.713 77.645 194.293 77.645H196.141V78.404H194.337C193.809 78.404 193.453 78.492 193.27 78.668C193.086 78.844 192.995 79.0567 192.995 79.306C192.995 79.592 193.108 79.823 193.336 79.999C193.563 80.1677 193.878 80.252 194.282 80.252C194.678 80.252 195.022 80.164 195.316 79.988C195.616 79.812 195.833 79.5553 195.965 79.218L196.174 79.944C196.034 80.2887 195.789 80.5637 195.437 80.769C195.085 80.967 194.641 81.066 194.106 81.066ZM204.283 81V73.3H205.383V81H204.283ZM211.747 75.115C212.224 75.115 212.642 75.2067 213.001 75.39C213.368 75.5733 213.654 75.852 213.859 76.226C214.065 76.6 214.167 77.073 214.167 77.645V81H213.111V77.766C213.111 77.2013 212.972 76.776 212.693 76.49C212.422 76.204 212.037 76.061 211.538 76.061C211.164 76.061 210.838 76.1343 210.559 76.281C210.281 76.4277 210.064 76.644 209.91 76.93C209.764 77.216 209.69 77.5717 209.69 77.997V81H208.634V75.17H209.646V76.743L209.481 76.325C209.672 75.9437 209.965 75.6467 210.361 75.434C210.757 75.2213 211.219 75.115 211.747 75.115ZM219.224 81.066C218.637 81.066 218.182 80.9083 217.86 80.593C217.537 80.2777 217.376 79.8267 217.376 79.24V73.894H218.432V79.196C218.432 79.5113 218.509 79.7533 218.663 79.922C218.824 80.0907 219.051 80.175 219.345 80.175C219.675 80.175 219.95 80.0833 220.17 79.9L220.5 80.659C220.338 80.7983 220.144 80.901 219.917 80.967C219.697 81.033 219.466 81.066 219.224 81.066ZM216.386 76.039V75.17H220.104V76.039H216.386ZM225.279 81.066C224.656 81.066 224.106 80.9377 223.629 80.681C223.16 80.4243 222.793 80.0723 222.529 79.625C222.272 79.1777 222.144 78.6643 222.144 78.085C222.144 77.5057 222.269 76.9923 222.518 76.545C222.775 76.0977 223.123 75.7493 223.563 75.5C224.01 75.2433 224.513 75.115 225.07 75.115C225.635 75.115 226.133 75.2397 226.566 75.489C226.999 75.7383 227.336 76.0903 227.578 76.545C227.827 76.9923 227.952 77.5167 227.952 78.118C227.952 78.162 227.948 78.2133 227.941 78.272C227.941 78.3307 227.937 78.3857 227.93 78.437H222.969V77.678H227.38L226.951 77.942C226.958 77.568 226.881 77.2343 226.72 76.941C226.559 76.6477 226.335 76.4203 226.049 76.259C225.77 76.0903 225.444 76.006 225.07 76.006C224.703 76.006 224.377 76.0903 224.091 76.259C223.805 76.4203 223.581 76.6513 223.42 76.952C223.259 77.2453 223.178 77.5827 223.178 77.964V78.14C223.178 78.5287 223.266 78.877 223.442 79.185C223.625 79.4857 223.878 79.7203 224.201 79.889C224.524 80.0577 224.894 80.142 225.312 80.142C225.657 80.142 225.968 80.0833 226.247 79.966C226.533 79.8487 226.782 79.6727 226.995 79.438L227.578 80.12C227.314 80.428 226.984 80.6627 226.588 80.824C226.199 80.9853 225.763 81.066 225.279 81.066ZM230.518 81V75.17H231.53V76.754L231.431 76.358C231.593 75.9547 231.864 75.6467 232.245 75.434C232.627 75.2213 233.096 75.115 233.653 75.115V76.138C233.609 76.1307 233.565 76.127 233.521 76.127C233.485 76.127 233.448 76.127 233.411 76.127C232.847 76.127 232.399 76.2957 232.069 76.633C231.739 76.9703 231.574 77.458 231.574 78.096V81H230.518ZM239.244 81V79.768L239.189 79.537V77.436C239.189 76.9887 239.057 76.644 238.793 76.402C238.536 76.1527 238.148 76.028 237.627 76.028C237.282 76.028 236.945 76.0867 236.615 76.204C236.285 76.314 236.006 76.4643 235.779 76.655L235.339 75.863C235.64 75.621 235.999 75.4377 236.417 75.313C236.842 75.181 237.286 75.115 237.748 75.115C238.547 75.115 239.163 75.3093 239.596 75.698C240.029 76.0867 240.245 76.6807 240.245 77.48V81H239.244ZM237.33 81.066C236.897 81.066 236.516 80.9927 236.186 80.846C235.863 80.6993 235.614 80.4977 235.438 80.241C235.262 79.977 235.174 79.68 235.174 79.35C235.174 79.0347 235.247 78.7487 235.394 78.492C235.548 78.2353 235.794 78.03 236.131 77.876C236.476 77.722 236.938 77.645 237.517 77.645H239.365V78.404H237.561C237.033 78.404 236.677 78.492 236.494 78.668C236.311 78.844 236.219 79.0567 236.219 79.306C236.219 79.592 236.333 79.823 236.56 79.999C236.787 80.1677 237.103 80.252 237.506 80.252C237.902 80.252 238.247 80.164 238.54 79.988C238.841 79.812 239.057 79.5553 239.189 79.218L239.398 79.944C239.259 80.2887 239.013 80.5637 238.661 80.769C238.309 80.967 237.865 81.066 237.33 81.066ZM244.157 79.592L244.179 78.239L247.534 75.17H248.81L246.236 77.7L245.664 78.184L244.157 79.592ZM243.299 81V72.838H244.355V81H243.299ZM247.754 81L245.466 78.162L246.148 77.315L249.052 81H247.754ZM253.18 81.066C252.593 81.066 252.138 80.9083 251.816 80.593C251.493 80.2777 251.332 79.8267 251.332 79.24V73.894H252.388V79.196C252.388 79.5113 252.465 79.7533 252.619 79.922C252.78 80.0907 253.007 80.175 253.301 80.175C253.631 80.175 253.906 80.0833 254.126 79.9L254.456 80.659C254.294 80.7983 254.1 80.901 253.873 80.967C253.653 81.033 253.422 81.066 253.18 81.066ZM250.342 76.039V75.17H254.06V76.039H250.342ZM256.832 81V75.17H257.888V81H256.832ZM257.36 74.048C257.155 74.048 256.983 73.982 256.843 73.85C256.711 73.718 256.645 73.5567 256.645 73.366C256.645 73.168 256.711 73.003 256.843 72.871C256.983 72.739 257.155 72.673 257.36 72.673C257.566 72.673 257.734 72.739 257.866 72.871C258.006 72.9957 258.075 73.1533 258.075 73.344C258.075 73.542 258.009 73.7107 257.877 73.85C257.745 73.982 257.573 74.048 257.36 74.048ZM261.159 81V74.653C261.159 74.081 261.324 73.6263 261.654 73.289C261.991 72.9443 262.468 72.772 263.084 72.772C263.311 72.772 263.527 72.8013 263.733 72.86C263.945 72.9113 264.125 72.9957 264.272 73.113L263.953 73.916C263.843 73.828 263.718 73.762 263.579 73.718C263.439 73.6667 263.293 73.641 263.139 73.641C262.831 73.641 262.596 73.729 262.435 73.905C262.273 74.0737 262.193 74.3267 262.193 74.664V75.445L262.215 75.929V81H261.159ZM260.169 76.039V75.17H263.887V76.039H260.169ZM270.191 81V73.3H273.194C273.868 73.3 274.444 73.4063 274.921 73.619C275.397 73.8317 275.764 74.1397 276.021 74.543C276.277 74.9463 276.406 75.4267 276.406 75.984C276.406 76.5413 276.277 77.0217 276.021 77.425C275.764 77.821 275.397 78.129 274.921 78.349C274.444 78.5617 273.868 78.668 273.194 78.668H270.796L271.291 78.151V81H270.191ZM271.291 78.261L270.796 77.711H273.161C273.865 77.711 274.396 77.5607 274.756 77.26C275.122 76.9593 275.306 76.534 275.306 75.984C275.306 75.434 275.122 75.0087 274.756 74.708C274.396 74.4073 273.865 74.257 273.161 74.257H270.796L271.291 73.707V78.261ZM281.542 81.066C280.919 81.066 280.369 80.9377 279.892 80.681C279.423 80.4243 279.056 80.0723 278.792 79.625C278.535 79.1777 278.407 78.6643 278.407 78.085C278.407 77.5057 278.532 76.9923 278.781 76.545C279.038 76.0977 279.386 75.7493 279.826 75.5C280.273 75.2433 280.776 75.115 281.333 75.115C281.898 75.115 282.396 75.2397 282.829 75.489C283.262 75.7383 283.599 76.0903 283.841 76.545C284.09 76.9923 284.215 77.5167 284.215 78.118C284.215 78.162 284.211 78.2133 284.204 78.272C284.204 78.3307 284.2 78.3857 284.193 78.437H279.232V77.678H283.643L283.214 77.942C283.221 77.568 283.144 77.2343 282.983 76.941C282.822 76.6477 282.598 76.4203 282.312 76.259C282.033 76.0903 281.707 76.006 281.333 76.006C280.966 76.006 280.64 76.0903 280.354 76.259C280.068 76.4203 279.844 76.6513 279.683 76.952C279.522 77.2453 279.441 77.5827 279.441 77.964V78.14C279.441 78.5287 279.529 78.877 279.705 79.185C279.888 79.4857 280.141 79.7203 280.464 79.889C280.787 80.0577 281.157 80.142 281.575 80.142C281.92 80.142 282.231 80.0833 282.51 79.966C282.796 79.8487 283.045 79.6727 283.258 79.438L283.841 80.12C283.577 80.428 283.247 80.6627 282.851 80.824C282.462 80.9853 282.026 81.066 281.542 81.066ZM294.074 75.115C294.544 75.115 294.958 75.2067 295.317 75.39C295.677 75.5733 295.955 75.852 296.153 76.226C296.359 76.6 296.461 77.073 296.461 77.645V81H295.405V77.766C295.405 77.2013 295.273 76.776 295.009 76.49C294.745 76.204 294.375 76.061 293.898 76.061C293.546 76.061 293.238 76.1343 292.974 76.281C292.71 76.4277 292.505 76.644 292.358 76.93C292.219 77.216 292.149 77.5717 292.149 77.997V81H291.093V77.766C291.093 77.2013 290.961 76.776 290.697 76.49C290.441 76.204 290.07 76.061 289.586 76.061C289.242 76.061 288.937 76.1343 288.673 76.281C288.409 76.4277 288.204 76.644 288.057 76.93C287.911 77.216 287.837 77.5717 287.837 77.997V81H286.781V75.17H287.793V76.721L287.628 76.325C287.812 75.9437 288.094 75.6467 288.475 75.434C288.857 75.2213 289.3 75.115 289.806 75.115C290.364 75.115 290.844 75.2543 291.247 75.533C291.651 75.8043 291.915 76.2187 292.039 76.776L291.61 76.6C291.786 76.1527 292.094 75.7933 292.534 75.522C292.974 75.2507 293.488 75.115 294.074 75.115ZM302.596 81.066C302.097 81.066 301.646 80.956 301.243 80.736C300.847 80.5087 300.531 80.175 300.297 79.735C300.069 79.295 299.956 78.745 299.956 78.085C299.956 77.425 300.073 76.875 300.308 76.435C300.55 75.995 300.869 75.665 301.265 75.445C301.668 75.225 302.112 75.115 302.596 75.115C303.168 75.115 303.674 75.2397 304.114 75.489C304.554 75.7383 304.902 76.0867 305.159 76.534C305.415 76.974 305.544 77.491 305.544 78.085C305.544 78.679 305.415 79.1997 305.159 79.647C304.902 80.0943 304.554 80.4427 304.114 80.692C303.674 80.9413 303.168 81.066 302.596 81.066ZM299.505 81V72.838H300.561V76.721L300.451 78.074L300.517 79.427V81H299.505ZM302.508 80.142C302.882 80.142 303.215 80.0577 303.509 79.889C303.809 79.7203 304.044 79.482 304.213 79.174C304.389 78.8587 304.477 78.4957 304.477 78.085C304.477 77.667 304.389 77.3077 304.213 77.007C304.044 76.699 303.809 76.4607 303.509 76.292C303.215 76.1233 302.882 76.039 302.508 76.039C302.141 76.039 301.807 76.1233 301.507 76.292C301.213 76.4607 300.979 76.699 300.803 77.007C300.634 77.3077 300.55 77.667 300.55 78.085C300.55 78.4957 300.634 78.8587 300.803 79.174C300.979 79.482 301.213 79.7203 301.507 79.889C301.807 80.0577 302.141 80.142 302.508 80.142ZM311.668 81V79.768L311.613 79.537V77.436C311.613 76.9887 311.481 76.644 311.217 76.402C310.96 76.1527 310.572 76.028 310.051 76.028C309.706 76.028 309.369 76.0867 309.039 76.204C308.709 76.314 308.43 76.4643 308.203 76.655L307.763 75.863C308.064 75.621 308.423 75.4377 308.841 75.313C309.266 75.181 309.71 75.115 310.172 75.115C310.971 75.115 311.587 75.3093 312.02 75.698C312.453 76.0867 312.669 76.6807 312.669 77.48V81H311.668ZM309.754 81.066C309.321 81.066 308.94 80.9927 308.61 80.846C308.287 80.6993 308.038 80.4977 307.862 80.241C307.686 79.977 307.598 79.68 307.598 79.35C307.598 79.0347 307.671 78.7487 307.818 78.492C307.972 78.2353 308.218 78.03 308.555 77.876C308.9 77.722 309.362 77.645 309.941 77.645H311.789V78.404H309.985C309.457 78.404 309.101 78.492 308.918 78.668C308.735 78.844 308.643 79.0567 308.643 79.306C308.643 79.592 308.757 79.823 308.984 79.999C309.211 80.1677 309.527 80.252 309.93 80.252C310.326 80.252 310.671 80.164 310.964 79.988C311.265 79.812 311.481 79.5553 311.613 79.218L311.822 79.944C311.683 80.2887 311.437 80.5637 311.085 80.769C310.733 80.967 310.289 81.066 309.754 81.066ZM318.836 75.115C319.313 75.115 319.731 75.2067 320.09 75.39C320.457 75.5733 320.743 75.852 320.948 76.226C321.153 76.6 321.256 77.073 321.256 77.645V81H320.2V77.766C320.2 77.2013 320.061 76.776 319.782 76.49C319.511 76.204 319.126 76.061 318.627 76.061C318.253 76.061 317.927 76.1343 317.648 76.281C317.369 76.4277 317.153 76.644 316.999 76.93C316.852 77.216 316.779 77.5717 316.779 77.997V81H315.723V75.17H316.735V76.743L316.57 76.325C316.761 75.9437 317.054 75.6467 317.45 75.434C317.846 75.2213 318.308 75.115 318.836 75.115ZM326.862 83.2C326.327 83.2 325.806 83.123 325.3 82.969C324.802 82.8223 324.395 82.6097 324.079 82.331L324.585 81.517C324.857 81.7517 325.19 81.935 325.586 82.067C325.982 82.2063 326.397 82.276 326.829 82.276C327.519 82.276 328.025 82.1147 328.347 81.792C328.67 81.4693 328.831 80.978 328.831 80.318V79.086L328.941 77.931L328.886 76.765V75.17H329.887V80.208C329.887 81.2347 329.631 81.99 329.117 82.474C328.604 82.958 327.852 83.2 326.862 83.2ZM326.73 80.758C326.166 80.758 325.66 80.6407 325.212 80.406C324.772 80.164 324.42 79.8303 324.156 79.405C323.9 78.9797 323.771 78.4883 323.771 77.931C323.771 77.3663 323.9 76.875 324.156 76.457C324.42 76.0317 324.772 75.7017 325.212 75.467C325.66 75.2323 326.166 75.115 326.73 75.115C327.229 75.115 327.684 75.2177 328.094 75.423C328.505 75.621 328.831 75.929 329.073 76.347C329.323 76.765 329.447 77.293 329.447 77.931C329.447 78.5617 329.323 79.086 329.073 79.504C328.831 79.922 328.505 80.2373 328.094 80.45C327.684 80.6553 327.229 80.758 326.73 80.758ZM326.851 79.834C327.24 79.834 327.585 79.7533 327.885 79.592C328.186 79.4307 328.421 79.207 328.589 78.921C328.765 78.635 328.853 78.305 328.853 77.931C328.853 77.557 328.765 77.227 328.589 76.941C328.421 76.655 328.186 76.435 327.885 76.281C327.585 76.1197 327.24 76.039 326.851 76.039C326.463 76.039 326.114 76.1197 325.806 76.281C325.506 76.435 325.267 76.655 325.091 76.941C324.923 77.227 324.838 77.557 324.838 77.931C324.838 78.305 324.923 78.635 325.091 78.921C325.267 79.207 325.506 79.4307 325.806 79.592C326.114 79.7533 326.463 79.834 326.851 79.834ZM335.458 81.066C334.959 81.066 334.519 80.9743 334.138 80.791C333.764 80.6077 333.471 80.329 333.258 79.955C333.053 79.5737 332.95 79.097 332.95 78.525V75.17H334.006V78.404C334.006 78.976 334.142 79.405 334.413 79.691C334.692 79.977 335.08 80.12 335.579 80.12C335.946 80.12 336.265 80.0467 336.536 79.9C336.807 79.746 337.016 79.526 337.163 79.24C337.31 78.9467 337.383 78.5947 337.383 78.184V75.17H338.439V81H337.438V79.427L337.603 79.845C337.412 80.2337 337.126 80.5343 336.745 80.747C336.364 80.9597 335.935 81.066 335.458 81.066ZM344.662 75.115C345.139 75.115 345.557 75.2067 345.916 75.39C346.283 75.5733 346.569 75.852 346.774 76.226C346.98 76.6 347.082 77.073 347.082 77.645V81H346.026V77.766C346.026 77.2013 345.887 76.776 345.608 76.49C345.337 76.204 344.952 76.061 344.453 76.061C344.079 76.061 343.753 76.1343 343.474 76.281C343.196 76.4277 342.979 76.644 342.825 76.93C342.679 77.216 342.605 77.5717 342.605 77.997V81H341.549V75.17H342.561V76.743L342.396 76.325C342.587 75.9437 342.88 75.6467 343.276 75.434C343.672 75.2213 344.134 75.115 344.662 75.115ZM353.756 81V79.768L353.701 79.537V77.436C353.701 76.9887 353.569 76.644 353.305 76.402C353.048 76.1527 352.659 76.028 352.139 76.028C351.794 76.028 351.457 76.0867 351.127 76.204C350.797 76.314 350.518 76.4643 350.291 76.655L349.851 75.863C350.151 75.621 350.511 75.4377 350.929 75.313C351.354 75.181 351.798 75.115 352.26 75.115C353.059 75.115 353.675 75.3093 354.108 75.698C354.54 76.0867 354.757 76.6807 354.757 77.48V81H353.756ZM351.842 81.066C351.409 81.066 351.028 80.9927 350.698 80.846C350.375 80.6993 350.126 80.4977 349.95 80.241C349.774 79.977 349.686 79.68 349.686 79.35C349.686 79.0347 349.759 78.7487 349.906 78.492C350.06 78.2353 350.305 78.03 350.643 77.876C350.987 77.722 351.449 77.645 352.029 77.645H353.877V78.404H352.073C351.545 78.404 351.189 78.492 351.006 78.668C350.822 78.844 350.731 79.0567 350.731 79.306C350.731 79.592 350.844 79.823 351.072 79.999C351.299 80.1677 351.614 80.252 352.018 80.252C352.414 80.252 352.758 80.164 353.052 79.988C353.352 79.812 353.569 79.5553 353.701 79.218L353.91 79.944C353.77 80.2887 353.525 80.5637 353.173 80.769C352.821 80.967 352.377 81.066 351.842 81.066ZM360.924 75.115C361.401 75.115 361.819 75.2067 362.178 75.39C362.545 75.5733 362.831 75.852 363.036 76.226C363.241 76.6 363.344 77.073 363.344 77.645V81H362.288V77.766C362.288 77.2013 362.149 76.776 361.87 76.49C361.599 76.204 361.214 76.061 360.715 76.061C360.341 76.061 360.015 76.1343 359.736 76.281C359.457 76.4277 359.241 76.644 359.087 76.93C358.94 77.216 358.867 77.5717 358.867 77.997V81H357.811V75.17H358.823V76.743L358.658 76.325C358.849 75.9437 359.142 75.6467 359.538 75.434C359.934 75.2213 360.396 75.115 360.924 75.115ZM171.123 99.141L171.068 97.799L175.435 93.3H176.689L173.312 96.864L172.696 97.546L171.123 99.141ZM170.155 101V93.3H171.255V101H170.155ZM175.611 101L172.454 97.326L173.191 96.512L176.898 101H175.611ZM181.246 101.066C180.66 101.066 180.139 100.938 179.684 100.681C179.23 100.424 178.87 100.072 178.606 99.625C178.342 99.1703 178.21 98.657 178.21 98.085C178.21 97.5057 178.342 96.9923 178.606 96.545C178.87 96.0977 179.23 95.7493 179.684 95.5C180.139 95.2433 180.66 95.115 181.246 95.115C181.826 95.115 182.343 95.2433 182.797 95.5C183.259 95.7493 183.619 96.0977 183.875 96.545C184.139 96.985 184.271 97.4983 184.271 98.085C184.271 98.6643 184.139 99.1777 183.875 99.625C183.619 100.072 183.259 100.424 182.797 100.681C182.343 100.938 181.826 101.066 181.246 101.066ZM181.246 100.142C181.62 100.142 181.954 100.058 182.247 99.889C182.548 99.7203 182.783 99.482 182.951 99.174C183.12 98.8587 183.204 98.4957 183.204 98.085C183.204 97.667 183.12 97.3077 182.951 97.007C182.783 96.699 182.548 96.4607 182.247 96.292C181.954 96.1233 181.62 96.039 181.246 96.039C180.872 96.039 180.539 96.1233 180.245 96.292C179.952 96.4607 179.717 96.699 179.541 97.007C179.365 97.3077 179.277 97.667 179.277 98.085C179.277 98.4957 179.365 98.8587 179.541 99.174C179.717 99.482 179.952 99.7203 180.245 99.889C180.539 100.058 180.872 100.142 181.246 100.142ZM188.834 101.066C188.247 101.066 187.793 100.908 187.47 100.593C187.147 100.278 186.986 99.8267 186.986 99.24V93.894H188.042V99.196C188.042 99.5113 188.119 99.7533 188.273 99.922C188.434 100.091 188.662 100.175 188.955 100.175C189.285 100.175 189.56 100.083 189.78 99.9L190.11 100.659C189.949 100.798 189.754 100.901 189.527 100.967C189.307 101.033 189.076 101.066 188.834 101.066ZM185.996 96.039V95.17H189.714V96.039H185.996ZM196.106 101V99.768L196.051 99.537V97.436C196.051 96.9887 195.919 96.644 195.655 96.402C195.398 96.1527 195.009 96.028 194.489 96.028C194.144 96.028 193.807 96.0867 193.477 96.204C193.147 96.314 192.868 96.4643 192.641 96.655L192.201 95.863C192.501 95.621 192.861 95.4377 193.279 95.313C193.704 95.181 194.148 95.115 194.61 95.115C195.409 95.115 196.025 95.3093 196.458 95.698C196.89 96.0867 197.107 96.6807 197.107 97.48V101H196.106ZM194.192 101.066C193.759 101.066 193.378 100.993 193.048 100.846C192.725 100.699 192.476 100.498 192.3 100.241C192.124 99.977 192.036 99.68 192.036 99.35C192.036 99.0347 192.109 98.7487 192.256 98.492C192.41 98.2353 192.655 98.03 192.993 97.876C193.337 97.722 193.799 97.645 194.379 97.645H196.227V98.404H194.423C193.895 98.404 193.539 98.492 193.356 98.668C193.172 98.844 193.081 99.0567 193.081 99.306C193.081 99.592 193.194 99.823 193.422 99.999C193.649 100.168 193.964 100.252 194.368 100.252C194.764 100.252 195.108 100.164 195.402 99.988C195.702 99.812 195.919 99.5553 196.051 99.218L196.26 99.944C196.12 100.289 195.875 100.564 195.523 100.769C195.171 100.967 194.727 101.066 194.192 101.066ZM204.369 101V93.3H205.469V100.043H209.638V101H204.369ZM215.465 101V99.768L215.41 99.537V97.436C215.41 96.9887 215.278 96.644 215.014 96.402C214.757 96.1527 214.369 96.028 213.848 96.028C213.503 96.028 213.166 96.0867 212.836 96.204C212.506 96.314 212.227 96.4643 212 96.655L211.56 95.863C211.861 95.621 212.22 95.4377 212.638 95.313C213.063 95.181 213.507 95.115 213.969 95.115C214.768 95.115 215.384 95.3093 215.817 95.698C216.25 96.0867 216.466 96.6807 216.466 97.48V101H215.465ZM213.551 101.066C213.118 101.066 212.737 100.993 212.407 100.846C212.084 100.699 211.835 100.498 211.659 100.241C211.483 99.977 211.395 99.68 211.395 99.35C211.395 99.0347 211.468 98.7487 211.615 98.492C211.769 98.2353 212.015 98.03 212.352 97.876C212.697 97.722 213.159 97.645 213.738 97.645H215.586V98.404H213.782C213.254 98.404 212.898 98.492 212.715 98.668C212.532 98.844 212.44 99.0567 212.44 99.306C212.44 99.592 212.554 99.823 212.781 99.999C213.008 100.168 213.324 100.252 213.727 100.252C214.123 100.252 214.468 100.164 214.761 99.988C215.062 99.812 215.278 99.5553 215.41 99.218L215.619 99.944C215.48 100.289 215.234 100.564 214.882 100.769C214.53 100.967 214.086 101.066 213.551 101.066ZM222.633 95.115C223.11 95.115 223.528 95.2067 223.887 95.39C224.254 95.5733 224.54 95.852 224.745 96.226C224.951 96.6 225.053 97.073 225.053 97.645V101H223.997V97.766C223.997 97.2013 223.858 96.776 223.579 96.49C223.308 96.204 222.923 96.061 222.424 96.061C222.05 96.061 221.724 96.1343 221.445 96.281C221.167 96.4277 220.95 96.644 220.796 96.93C220.65 97.216 220.576 97.5717 220.576 97.997V101H219.52V95.17H220.532V96.743L220.367 96.325C220.558 95.9437 220.851 95.6467 221.247 95.434C221.643 95.2213 222.105 95.115 222.633 95.115ZM230.66 103.2C230.124 103.2 229.604 103.123 229.098 102.969C228.599 102.822 228.192 102.61 227.877 102.331L228.383 101.517C228.654 101.752 228.988 101.935 229.384 102.067C229.78 102.206 230.194 102.276 230.627 102.276C231.316 102.276 231.822 102.115 232.145 101.792C232.467 101.469 232.629 100.978 232.629 100.318V99.086L232.739 97.931L232.684 96.765V95.17H233.685V100.208C233.685 101.235 233.428 101.99 232.915 102.474C232.401 102.958 231.65 103.2 230.66 103.2ZM230.528 100.758C229.963 100.758 229.457 100.641 229.01 100.406C228.57 100.164 228.218 99.8303 227.954 99.405C227.697 98.9797 227.569 98.4883 227.569 97.931C227.569 97.3663 227.697 96.875 227.954 96.457C228.218 96.0317 228.57 95.7017 229.01 95.467C229.457 95.2323 229.963 95.115 230.528 95.115C231.026 95.115 231.481 95.2177 231.892 95.423C232.302 95.621 232.629 95.929 232.871 96.347C233.12 96.765 233.245 97.293 233.245 97.931C233.245 98.5617 233.12 99.086 232.871 99.504C232.629 99.922 232.302 100.237 231.892 100.45C231.481 100.655 231.026 100.758 230.528 100.758ZM230.649 99.834C231.037 99.834 231.382 99.7533 231.683 99.592C231.983 99.4307 232.218 99.207 232.387 98.921C232.563 98.635 232.651 98.305 232.651 97.931C232.651 97.557 232.563 97.227 232.387 96.941C232.218 96.655 231.983 96.435 231.683 96.281C231.382 96.1197 231.037 96.039 230.649 96.039C230.26 96.039 229.912 96.1197 229.604 96.281C229.303 96.435 229.065 96.655 228.889 96.941C228.72 97.227 228.636 97.557 228.636 97.931C228.636 98.305 228.72 98.635 228.889 98.921C229.065 99.207 229.303 99.4307 229.604 99.592C229.912 99.7533 230.26 99.834 230.649 99.834ZM238.474 101.066C237.99 101.066 237.528 101 237.088 100.868C236.656 100.736 236.315 100.575 236.065 100.384L236.505 99.548C236.755 99.7167 237.063 99.8597 237.429 99.977C237.796 100.094 238.17 100.153 238.551 100.153C239.043 100.153 239.395 100.083 239.607 99.944C239.827 99.8047 239.937 99.6103 239.937 99.361C239.937 99.1777 239.871 99.0347 239.739 98.932C239.607 98.8293 239.431 98.7523 239.211 98.701C238.999 98.6497 238.76 98.6057 238.496 98.569C238.232 98.525 237.968 98.4737 237.704 98.415C237.44 98.349 237.198 98.261 236.978 98.151C236.758 98.0337 236.582 97.876 236.45 97.678C236.318 97.4727 236.252 97.2013 236.252 96.864C236.252 96.512 236.351 96.204 236.549 95.94C236.747 95.676 237.026 95.4743 237.385 95.335C237.752 95.1883 238.185 95.115 238.683 95.115C239.065 95.115 239.45 95.1627 239.838 95.258C240.234 95.346 240.557 95.4743 240.806 95.643L240.355 96.479C240.091 96.303 239.816 96.182 239.53 96.116C239.244 96.05 238.958 96.017 238.672 96.017C238.21 96.017 237.866 96.094 237.638 96.248C237.411 96.3947 237.297 96.5853 237.297 96.82C237.297 97.018 237.363 97.172 237.495 97.282C237.635 97.3847 237.811 97.4653 238.023 97.524C238.243 97.5827 238.485 97.634 238.749 97.678C239.013 97.7147 239.277 97.766 239.541 97.832C239.805 97.8907 240.044 97.975 240.256 98.085C240.476 98.195 240.652 98.349 240.784 98.547C240.924 98.745 240.993 99.009 240.993 99.339C240.993 99.691 240.891 99.9953 240.685 100.252C240.48 100.509 240.19 100.71 239.816 100.857C239.442 100.996 238.995 101.066 238.474 101.066ZM247.032 101V99.768L246.977 99.537V97.436C246.977 96.9887 246.845 96.644 246.581 96.402C246.324 96.1527 245.936 96.028 245.415 96.028C245.07 96.028 244.733 96.0867 244.403 96.204C244.073 96.314 243.794 96.4643 243.567 96.655L243.127 95.863C243.428 95.621 243.787 95.4377 244.205 95.313C244.63 95.181 245.074 95.115 245.536 95.115C246.335 95.115 246.951 95.3093 247.384 95.698C247.817 96.0867 248.033 96.6807 248.033 97.48V101H247.032ZM245.118 101.066C244.685 101.066 244.304 100.993 243.974 100.846C243.651 100.699 243.402 100.498 243.226 100.241C243.05 99.977 242.962 99.68 242.962 99.35C242.962 99.0347 243.035 98.7487 243.182 98.492C243.336 98.2353 243.582 98.03 243.919 97.876C244.264 97.722 244.726 97.645 245.305 97.645H247.153V98.404H245.349C244.821 98.404 244.465 98.492 244.282 98.668C244.099 98.844 244.007 99.0567 244.007 99.306C244.007 99.592 244.121 99.823 244.348 99.999C244.575 100.168 244.891 100.252 245.294 100.252C245.69 100.252 246.035 100.164 246.328 99.988C246.629 99.812 246.845 99.5553 246.977 99.218L247.186 99.944C247.047 100.289 246.801 100.564 246.449 100.769C246.097 100.967 245.653 101.066 245.118 101.066Z" fill="white"/>
<path d="M51.4938 40.8519V26.7589L36.1898 21.3689L22.0078 26.7589V52.0029L51.4938 40.8519Z" fill="white"/>
<path d="M62.2426 36.788L68.5166 53.522L87.2696 46.462V6.802L71.9646 0L57.7666 6.802V38.48L62.2426 36.788Z" fill="white"/>
<path d="M107.069 39.0089L111.88 51.1229L123.029 46.1729V26.7589L107.74 21.3689L93.543 26.7589V44.1009L107.069 39.0089Z" fill="white"/>
<path d="M72.518 94.0162C99.97 94.0162 125.177 101.627 145.036 114.321C128.141 92.8622 101.949 79.0662 72.518 79.0662C43.087 79.0662 16.895 92.8622 0 114.321C19.859 101.628 45.066 94.0162 72.518 94.0162Z" fill="#9FEF00"/>
<path d="M106.62 63.9602L101.611 51.3472L93.542 54.3852V93.0802C103.922 94.5882 113.82 97.2192 123.028 100.781V56.6882L106.62 63.9602Z" fill="#9FEF00"/>
<path d="M22.0078 62.2931V100.781C31.2168 97.2201 41.1148 94.5881 51.4948 93.0801V51.1431L22.0078 62.2931Z" fill="#9FEF00"/>
<path d="M62.8861 65.926L57.7671 52.27V92.295C62.5961 91.814 67.5211 91.557 72.5101 91.557C77.5151 91.557 82.4401 91.814 87.2691 92.295V56.748L62.8861 65.926Z" fill="#9FEF00"/>
<path d="M142.852 40.7771L131.831 39.6731L135.249 47.2501L111.005 58.0151L106.159 45.8131L67.5778 60.3371L61.3048 43.6051L10.4868 62.8221L12.7568 68.8241L57.5558 51.8841L63.8248 68.6061L102.521 54.0391L107.496 66.5661L137.886 53.0961L140.94 59.8661L147.406 50.8741L153.873 41.8811L142.852 40.7771Z" fill="#9FEF00"/>
</svg>
